<svg xmlns="http://www.w3.org/2000/svg" viewBox="0 0 35.3816 35.3816"><defs><style>.cls-1{fill:#979797;}</style></defs><g id="Layer_2" data-name="Layer 2"><g id="ELEMENTS"><path class="cls-1" d="M27.0577,6.3175A2.07425,2.07425,0,1,0,29.132,8.3916,2.07416,2.07416,0,0,0,27.0577,6.3175Z"/><path class="cls-1" d="M17.8361,8.9775a8.71335,8.71335,0,1,0,8.7133,8.7133A8.72333,8.72333,0,0,0,17.8361,8.9775Zm0,14.2948a5.58145,5.58145,0,1,1,5.5812-5.5815A5.58773,5.58773,0,0,1,17.8361,23.2723Z"/><path class="cls-1" d="M24.7534,35.3816H10.6275A10.63944,10.63944,0,0,1,0,24.7541V10.6275A10.63937,10.63937,0,0,1,10.6275,0H24.7534A10.64,10.64,0,0,1,35.3816,10.6275V24.7541A10.64,10.64,0,0,1,24.7534,35.3816ZM10.6275,3.3288a7.30671,7.30671,0,0,0-7.2989,7.2987V24.7541a7.30682,7.30682,0,0,0,7.2989,7.2989H24.7534a7.30725,7.30725,0,0,0,7.29941-7.2989V10.6275A7.30715,7.30715,0,0,0,24.7534,3.3288Z"/></g></g></svg>