<?xml version="1.0" encoding="utf-8"?>
<!-- Generator: Adobe Illustrator 24.3.0, SVG Export Plug-In . SVG Version: 6.00 Build 0)  -->
<svg version="1.1" id="Layer_1" xmlns="http://www.w3.org/2000/svg" xmlns:xlink="http://www.w3.org/1999/xlink" x="0px" y="0px"
	 viewBox="0 0 1920 1080" style="enable-background:new 0 0 1920 1080;" xml:space="preserve">
<style type="text/css">
	.st0{fill:#FD79A8;}
	.st1{fill:#EAE4E1;}
	.st2{fill:#D6A2E8;}
	.st3{fill:#81ECEC;}
</style>
<g>
	
		<ellipse transform="matrix(0.7071 -0.7071 0.7071 0.7071 -277.6439 409.7086)" class="st0" cx="355.74" cy="540" rx="346.46" ry="346.46"/>
	<g>
		<path class="st1" d="M531.58,360.89H179.9c-9.21,0-16.7,7.49-16.7,16.71v86.86c0,9.21,7.5,16.71,16.7,16.71h26.04l10.39,227.25
			c0.27,5.99,5.18,10.68,11.18,10.68h12.01c6,0,10.91-4.7,11.18-10.7l3.9-85.25h202.26l3.89,85.24c0.26,6.01,5.17,10.71,11.19,10.71
			h12.01c6,0,10.91-4.7,11.18-10.7l10.39-227.24h26.03c9.21,0,16.7-7.49,16.7-16.71V377.6
			C548.28,368.38,540.79,360.89,531.58,360.89z M239.21,707.58l-11.35,0.32L217.5,481.17h32.05L239.21,707.58z M255.14,611.62
			l0.79-17.27h199.63l0.79,17.27H255.14z M256.46,582.81l4.65-101.64h189.28l4.64,101.64H256.46z M483.65,707.58l-11.35,0.32
			l-10.36-226.72h32.05L483.65,707.58z M536.74,464.46c0,2.85-2.31,5.17-5.16,5.17h-25.51h-56.22H261.63h-56.22H179.9
			c-2.85,0-5.16-2.32-5.16-5.17V377.6c0-2.85,2.31-5.17,5.16-5.17h351.68c2.85,0,5.16,2.32,5.16,5.17V464.46z"/>
	</g>
	
		<ellipse transform="matrix(0.7071 -0.7071 0.7071 0.7071 76.3232 1264.2609)" class="st2" cx="1564.26" cy="540" rx="346.46" ry="346.46"/>
	<g>
		<path class="st1" d="M1734.96,315.72h-341.41c-7.99,0-14.48,6.5-14.48,14.48v372.11c0,7.99,6.49,14.48,14.48,14.48h11.77
			l4.73,39.03c0.59,4.82,4.69,8.46,9.55,8.46h17.65c4.86,0,8.96-3.64,9.55-8.46l4.73-39.03h225.46l4.73,39.03
			c0.59,4.82,4.69,8.46,9.55,8.46h17.65c4.86,0,8.96-3.64,9.55-8.46l4.73-39.03h11.77c7.99,0,14.48-6.49,14.48-14.48V330.2
			C1749.45,322.21,1742.95,315.72,1734.96,315.72z M1435.55,752.74h-14.25l-4.35-35.95h22.95L1435.55,752.74z M1707.22,752.74
			h-14.25l-4.35-35.95h22.95L1707.22,752.74z M1737.91,702.31c0,1.62-1.32,2.94-2.94,2.94h-10.37h-49h-222.67h-49h-10.37
			c-1.62,0-2.94-1.32-2.94-2.94V586.95h347.29V702.31z M1737.91,575.41h-347.29V457.1h347.29V575.41z M1737.91,445.56h-347.29V330.2
			c0-1.62,1.32-2.94,2.94-2.94h341.41c1.62,0,2.94,1.32,2.94,2.94V445.56z"/>
		<path class="st1" d="M1461.93,375.14c-6.22,0-11.27,5.06-11.27,11.27c0,6.22,5.06,11.27,11.27,11.27
			c6.21,0,11.27-5.06,11.27-11.27C1473.19,380.19,1468.14,375.14,1461.93,375.14z"/>
		<path class="st1" d="M1666.6,375.14c-6.22,0-11.27,5.06-11.27,11.27c0,6.22,5.06,11.27,11.27,11.27c6.21,0,11.27-5.06,11.27-11.27
			C1677.86,380.19,1672.81,375.14,1666.6,375.14z"/>
		<path class="st1" d="M1461.93,527.53c6.21,0,11.27-5.06,11.27-11.27c0-6.22-5.06-11.27-11.27-11.27
			c-6.22,0-11.27,5.06-11.27,11.27C1450.66,522.47,1455.71,527.53,1461.93,527.53z"/>
		<path class="st1" d="M1666.6,527.53c6.21,0,11.27-5.06,11.27-11.27c0-6.22-5.06-11.27-11.27-11.27c-6.22,0-11.27,5.06-11.27,11.27
			C1655.32,522.47,1660.38,527.53,1666.6,527.53z"/>
		<path class="st1" d="M1461.93,657.37c6.21,0,11.27-5.06,11.27-11.27c0-6.22-5.06-11.27-11.27-11.27
			c-6.22,0-11.27,5.06-11.27,11.27C1450.66,652.31,1455.71,657.37,1461.93,657.37z"/>
		<path class="st1" d="M1666.6,657.37c6.21,0,11.27-5.06,11.27-11.27c0-6.22-5.06-11.27-11.27-11.27c-6.22,0-11.27,5.06-11.27,11.27
			C1655.32,652.31,1660.38,657.37,1666.6,657.37z"/>
	</g>
	
		<ellipse transform="matrix(0.7071 -0.7071 0.7071 0.7071 -100.6603 836.9848)" class="st3" cx="960" cy="540" rx="346.46" ry="346.46"/>
	<g>
		<path class="st1" d="M1009.48,309.82c-1.84-5.8-7.16-9.69-13.23-9.69h-72.5c-6.07,0-11.39,3.89-13.23,9.71l-67.51,214.6
			c-1.1,3.49-0.5,7.19,1.68,10.15c2.13,2.91,5.57,4.65,9.17,4.65h28.98v49.85c-6.3,2.35-10.82,8.39-10.82,15.5
			c0,9.15,7.44,16.59,16.59,16.59c9.15,0,16.59-7.44,16.59-16.59c0-7.11-4.52-13.14-10.82-15.5v-49.85h45.15v184.02l-58.62,42.65
			c-2.73,1.96-3.87,5.43-2.83,8.62c1.03,3.2,3.98,5.35,7.34,5.35h149.16c3.36,0,6.31-2.15,7.34-5.35c1.04-3.19-0.1-6.66-2.81-8.61
			l-58.64-42.66V539.24h85.66c3.61,0,7.04-1.74,9.18-4.65c2.17-2.96,2.78-6.66,1.68-10.15L1009.48,309.82z M1022.83,768.33H897.17
			l53.89-39.2v-189.9h17.86v189.9L1022.83,768.33z M854.01,527.9l67.51-214.58c0.32-0.99,1.21-1.65,2.23-1.65h72.5
			c1.02,0,1.91,0.66,2.23,1.63l67.51,214.4L854.01,527.9z"/>
	</g>
</g>
</svg>
